HIERARCHY
ROOT Hips
{
	OFFSET 0.000000 0.000000 0.000000 
	CHANNELS 6 Xposition Yposition Zposition Zrotation Xrotation Yrotation
	JOINT Chest
	{
		OFFSET 0.000000 20.000000 0.000000 
		CHANNELS 3 Zrotation Xrotation Yrotation
		JOINT LeftShoulder
		{
			OFFSET 20.000000 20.000000 0.000000 
			CHANNELS 3 Zrotation Xrotation Yrotation
			JOINT LeftElbow
			{
				OFFSET 25.000000 0.000000 0.000000 
				CHANNELS 3 Zrotation Xrotation Yrotation
				JOINT LeftWrist
				{
					OFFSET 22.000000 0.000000 0.000000 
					CHANNELS 3 Zrotation Xrotation Yrotation
					End Site
					{
						OFFSET 15.000000 0.000000 0.000000 
					}
				}
			}
		}
		JOINT RightShoulder
		{
			OFFSET -20.000000 20.000000 0.000000 
			CHANNELS 3 Zrotation Xrotation Yrotation
			JOINT RightElbow
			{
				OFFSET -25.000000 0.000000 0.000000 
				CHANNELS 3 Zrotation Xrotation Yrotation
				JOINT RightWrist
				{
					OFFSET -22.000000 0.000000 0.000000 
					CHANNELS 3 Zrotation Xrotation Yrotation
					End Site
					{
						OFFSET -15.000000 0.000000 0.000000 
					}
				}
			}
		}
		JOINT Neck
		{
			OFFSET 0.000000 20.099993 0.000000 
			CHANNELS 3 Zrotation Xrotation Yrotation
			End Site
			{
				OFFSET -0.200000 15.899995 10.500000 
			}
		}
	}
	JOINT LeftHip
	{
		OFFSET 10.000000 0.000000 0.000000 
		CHANNELS 3 Zrotation Xrotation Yrotation
		JOINT LeftKnee
		{
			OFFSET 0.000000 -50.000000 0.000000 
			CHANNELS 3 Zrotation Xrotation Yrotation
			JOINT LeftAnkle
			{
				OFFSET 0.000000 -40.000000 0.000000 
				CHANNELS 3 Zrotation Xrotation Yrotation
				End Site
				{
					OFFSET 0.000000 0.000000 20.000000 
				}
			}
		}
	}
	JOINT RightHip
	{
		OFFSET -10.000000 0.000000 0.000000 
		CHANNELS 3 Zrotation Xrotation Yrotation
		JOINT RightKnee
		{
			OFFSET 0.000000 -50.000000 0.000000 
			CHANNELS 3 Zrotation Xrotation Yrotation
			JOINT RightAnkle
			{
				OFFSET 0.000000 -40.000000 0.000000 
				CHANNELS 3 Zrotation Xrotation Yrotation
				End Site
				{
					OFFSET 0.000000 0.000000 20.000000 
				}
			}
		}
	}
}
MOTION
Frames: 8
Frame Time: 0.033333
0.000000 90.000000 0.000000 0.000000 0.000000 0.000000 0.000000 0.000000 0.000000 0.000000 0.000000 0.000000 0.000000 0.000000 0.000000 0.000000 0.000000 0.000000 0.000000 0.000000 0.000000 0.000000 0.000000 0.000000 0.000000 0.000000 0.000000 0.000000 0.000000 0.000000 0.000000 0.000000 0.000000 0.000000 0.000000 0.000000 0.000000 0.000000 0.000000 0.000000 0.000000 0.000000 0.000000 0.000000 0.000000 0.000000 0.000000 0.000000 
-44.000301 93.566299 229.025604 -7.980000 -20.330000 -7.460000 11.259999 33.480000 -5.809999 15.820000 -32.830002 -86.660004 8.210000 -45.770000 -3.650000 -4.210000 -2.340000 -19.660000 -18.719999 -29.190001 73.959999 -12.720000 -38.000000 3.660000 0.360000 -11.470000 -25.299999 -6.530000 -16.980000 -18.180000 19.740000 10.540000 -4.640000 -0.160000 19.110001 -0.240000 -13.850000 -4.630000 8.260000 12.530000 12.690000 -5.040000 -2.220000 17.889999 -0.700000 -4.140000 -9.620000 -6.340000 
-43.995399 93.589104 229.013596 -8.000000 -20.410000 -7.420000 11.309999 33.660000 -5.759999 15.740000 -32.980000 -86.790001 8.240000 -45.380001 -3.620000 -3.940000 -3.610000 -17.459999 -18.730000 -29.270000 73.809998 -12.720000 -37.959999 3.660000 0.560000 -11.320000 -24.969999 -6.490000 -17.100000 -18.160000 19.760000 10.590000 -4.840000 -0.190000 19.100000 -0.210000 -13.860000 -4.500000 8.310000 12.570000 12.850000 -5.050000 -2.170000 17.700001 -0.650000 -4.190000 -9.500000 -6.550000 
-43.980301 93.589996 229.013596 -8.000000 -20.430000 -7.340000 11.330000 33.680000 -5.750000 15.740000 -32.990002 -86.809998 8.240000 -45.320000 -3.610000 -3.860000 -3.720000 -17.500000 -18.740000 -29.299999 73.809998 -12.730000 -37.869999 3.660000 0.580000 -11.370000 -25.120001 -6.450000 -17.060001 -17.900002 19.760000 10.590000 -4.890000 -0.190000 19.090000 -0.210000 -13.840000 -4.540000 8.290000 12.560000 12.880000 -5.090000 -2.140000 17.680000 -0.630000 -4.190000 -9.500000 -6.630000 
-43.966801 93.583801 229.020996 -7.980000 -20.440001 -7.230000 11.340000 33.660000 -5.740000 15.760000 -32.980000 -86.820000 8.240000 -45.400002 -3.620000 -3.840000 -3.540000 -17.889999 -18.740000 -29.299999 73.980003 -12.730000 -37.759998 3.650000 0.470000 -11.560000 -25.799999 -6.420000 -16.930000 -17.430000 19.750000 10.570000 -4.900000 -0.180000 19.090000 -0.220000 -13.820000 -4.600000 8.230000 12.540000 12.850000 -5.150000 -2.110000 17.700001 -0.640000 -4.190000 -9.510000 -6.620000 
-43.960602 93.580399 229.031906 -7.950000 -20.450001 -7.110000 11.369999 33.610001 -5.719999 15.790000 -32.970001 -86.849998 8.240000 -45.430000 -3.620000 -3.800000 -3.600000 -17.500000 -18.750000 -29.309999 74.260002 -12.740000 -37.650002 3.650000 0.280000 -11.820000 -26.820000 -6.370000 -16.730000 -16.759998 19.750000 10.530000 -4.900000 -0.170000 19.110001 -0.230000 -13.800000 -4.620000 8.130000 12.550000 12.860000 -5.160000 -2.110000 17.700001 -0.660000 -4.190000 -9.520000 -6.680000 
-43.958000 93.582397 229.043701 -7.900000 -20.490000 -6.950000 11.410000 33.550003 -5.700000 15.820000 -32.950001 -86.870003 8.240000 -45.380001 -3.620000 -3.720000 -4.020000 -16.350000 -18.770000 -29.330000 74.559998 -12.740000 -37.560001 3.650000 0.120000 -12.060000 -27.790001 -6.320000 -16.540001 -16.010000 19.730000 10.480000 -4.910000 -0.160000 19.139999 -0.230000 -13.780000 -4.580000 8.010000 12.610000 12.910000 -5.060000 -2.150000 17.670000 -0.670000 -4.180000 -9.520000 -6.910000 
-43.951500 93.586700 229.056595 -7.830000 -20.540001 -6.760000 11.459999 33.500000 -5.690000 15.850000 -32.930000 -86.879997 8.250000 -45.290001 -3.610000 -3.620000 -4.570000 -15.150000 -18.790001 -29.330000 74.720001 -12.750000 -37.520000 3.650000 0.060000 -12.190000 -28.270000 -6.230000 -16.350000 -15.200001 19.700001 10.430000 -4.940000 -0.160000 19.170000 -0.230000 -13.770000 -4.500000 7.890000 12.620000 12.960000 -5.000000 -2.180000 17.650000 -0.660000 -4.160000 -9.510000 -7.200000 
